inDegrees=no
num_controls=7
num_derivatives=13
num_iterations=127
num_multipliers=7
num_parameters=0
num_slacks=7
num_states=26
objective=0.545327
objective_accelerations=0.041970
objective_balance=0.003857
objective_effort=0.040866
objective_height=0.449192
objective_ligament=0.009441
solver_duration=1527.074972
status=Solve_Succeeded
success=true
DataType=double
version=3
OpenSimVersion=4.5
endheader
time	/jointset/ground_pelvis/pelvis_tilt/value	/jointset/ground_pelvis/pelvis_tx/value	/jointset/ground_pelvis/pelvis_ty/value	/jointset/hip_r/hip_flexion_r/value	/jointset/hip_r/hip_adduction_r/value	/jointset/hip_r/hip_rotation_r/value	/jointset/back/lumbar_extension/value	/jointset/patellofemoral_r/patellar_flexion_r/value	/jointset/knee_r/knee_flexion_r/value	/jointset/knee_r/knee_adduction_r/value	/jointset/knee_r/knee_rotation_r/value	/jointset/ankle_r/ankle_angle_r/value	/jointset/subtalar_r/subtalar_angle_r/value	/jointset/ground_pelvis/pelvis_tilt/speed	/jointset/ground_pelvis/pelvis_tx/speed	/jointset/ground_pelvis/pelvis_ty/speed	/jointset/hip_r/hip_flexion_r/speed	/jointset/hip_r/hip_adduction_r/speed	/jointset/hip_r/hip_rotation_r/speed	/jointset/back/lumbar_extension/speed	/jointset/patellofemoral_r/patellar_flexion_r/speed	/jointset/knee_r/knee_flexion_r/speed	/jointset/knee_r/knee_adduction_r/speed	/jointset/knee_r/knee_rotation_r/speed	/jointset/ankle_r/ankle_angle_r/speed	/jointset/subtalar_r/subtalar_angle_r/speed	/forceset/tau_hip_flexion_r	/forceset/tau_hip_adduction_r	/forceset/tau_hip_rotation_r	/forceset/tau_knee_flexion_r	/forceset/tau_ankle_angle_r	/forceset/tau_subtalar_angle_r	/forceset/tau_lumbar_extension	lambda_cid13_p0	lambda_cid14_p0	lambda_cid14_p1	lambda_cid14_p2	lambda_cid14_p3	lambda_cid14_p4	lambda_cid14_p5	/jointset/ground_pelvis/pelvis_tilt/accel	/jointset/ground_pelvis/pelvis_tx/accel	/jointset/ground_pelvis/pelvis_ty/accel	/jointset/hip_r/hip_flexion_r/accel	/jointset/hip_r/hip_adduction_r/accel	/jointset/hip_r/hip_rotation_r/accel	/jointset/back/lumbar_extension/accel	/jointset/patellofemoral_r/patellar_flexion_r/accel	/jointset/knee_r/knee_flexion_r/accel	/jointset/knee_r/knee_adduction_r/accel	/jointset/knee_r/knee_rotation_r/accel	/jointset/ankle_r/ankle_angle_r/accel	/jointset/subtalar_r/subtalar_angle_r/accel	gamma_cid13_p0	gamma_cid14_p0	gamma_cid14_p1	gamma_cid14_p2	gamma_cid14_p3	gamma_cid14_p4	gamma_cid14_p5
1.5	-0.2315731310267798	0.004115677584595083	0.8482093769487259	0.8791943265218725	-0.225333735635269	-0.1424136579797429	-0.3057856655161963	0.6519114861482489	0.6519114861483464	0.03691720471841025	0.1744786400108352	0.1715883951492333	0.03717875142358917	0.5663486442793746	0.2403846893136169	0.4040493035695154	-1.998078924036289	0.01205321521288409	-0.291276706982391	0.6952051043232135	-1.742665168732976	-1.74266516873264	0.2759063576197581	7.07466889838692e-05	-0.3913168964339758	-0.08545207803845351	-0.1459447884303084	-0.02099665265132863	0.007730508146896637	-0.293212856640637	0.108480882228448	-0.009732986627690449	0.1773210649599496	-33.98871181141547	-6.80828008448134	-1.089175377525366	-4.312221772934881	-2.459180202055453	-658.503220275072	58.10068724284483	0.2820673957433117	0.5367444641833106	-0.4500411315196547	-1.173754189710902	0.006200080993024555	-0.5070338573535211	1.654167339226599	-1.099041377376544	-1.099041377376641	0.4497688355982238	0.001685608675906594	-0.3281964734365146	-0.04323355163271799	1.309310628610816e-07	1.888956425045697e-07	-4.591627178307771e-07	1.260403015817702e-06	-6.098902848172985e-08	2.666236500163675e-07	-4.655471095128616e-07
1.51	-0.2258960612450973	0.006546040984934095	0.8522264942790025	0.8591571140396836	-0.2252138431466292	-0.1453506711698214	-0.2987523513882158	0.6344322766386208	0.6344322766387128	0.03970098675812826	0.1744795840011101	0.167659090039138	0.03632097867251737	0.5689821496069096	0.2456508160180674	0.3992849730981541	-2.009073962768326	0.01192333174835241	-0.29610469895939	0.7113406780024242	-1.752915760078629	-1.752915760078362	0.2808352168894896	0.0001113623129966873	-0.3944839119770104	-0.08608803302967701	-0.1378593653111318	-0.02257688656713292	0.007102208548538624	-0.2905287278402719	0.1106066497113638	-0.01038901772738523	0.1703188155983727	-34.89724359118286	-5.92164636170237	-1.125163186946943	-4.413492805761442	-2.667070243910473	-654.1707534138299	58.15465030325878	0.2415375481435017	0.5159588447050161	-0.5029486930839443	-1.018911190455645	-0.02273695591450253	-0.4672707135522131	1.57569589171046	-0.94895044003235	-0.9489504400424144	0.5122062337936029	0.00449964530206881	-0.3019121966488115	-0.07154040277867729	1.382168078639646e-07	1.954942758616895e-07	-5.136134287624906e-07	1.303193610068239e-06	-5.940708564852974e-08	2.844280805111857e-07	-5.164296503868663e-07
1.52	-0.2201951473207622	0.009027948066543456	0.8561933043669376	0.8390186446750747	-0.225095280371782	-0.1483352820488069	-0.2915611928215543	0.6168583847301593	0.6168583847302476	0.04253360974276876	0.1744807841688363	0.16369992315323	0.03545729358555104	0.5711174728098419	0.250693425567687	0.3939878551012101	-2.018330300520585	0.01178727245429381	-0.3007962447635552	0.7267739920593203	-1.761601648499185	-1.761601648498984	0.2856745466045415	0.0001219821785329989	-0.3972892515965198	-0.08663454521736129	-0.1297739421919485	-0.02415712048294428	0.006473908950225265	-0.2878445990399074	0.1127324171942766	-0.01104504882708996	0.1633165662368039	-35.77395528423993	-5.04239484805794	-1.158965103260883	-4.519086475521765	-2.875150050667944	-649.9586130027872	58.28887004574106	0.182430970822767	0.4920410332171262	-0.5565986366362056	-0.82601399375534	0.004964915087639881	-0.4797446227867718	1.513715414763658	-0.7861007923568686	-0.7861007923569149	0.4318629246622757	-0.00431354301939617	-0.2558612887314563	-0.02534499092487722	1.466686472427216e-07	1.984205001146409e-07	-6.018557030730349e-07	1.32230814960976e-06	-5.191175984643982e-08	2.992194883249681e-07	-5.755410585693418e-07
1.53	-0.2144754025937455	0.01155912566317694	0.8601045481815462	0.818796313283835	-0.2249781652803658	-0.1513664381133988	-0.284219327739605	0.5992054826764071	0.5992054826763886	0.04541409837255315	0.1744822282252166	0.1597145317584587	0.03458853868885632	0.5727439449533016	0.2555004857360402	0.3881784662485488	-2.025838728061796	0.01163502861783654	-0.3054135371411247	0.7414701609492518	-1.768710615499404	-1.768710615499201	0.2904023418571089	0.0001616649003078465	-0.3997236709209817	-0.0870995512149253	-0.1215678867155291	-0.026008693897602	0.005865558042144255	-0.2854665867543418	0.1152472125739285	-0.01183965351467317	0.1562277522975954	-36.61424786601101	-4.057641673392422	-1.237981496067525	-4.613467815643864	-3.134401568705616	-645.9536155292523	58.40960410360294	0.1396455874149746	0.4687911537352687	-0.6054118425059779	-0.6686438879897216	-0.02531809169051039	-0.4492616648831261	1.428238118922876	-0.6331049506121045	-0.6331049506117107	0.490064652698096	0.007587985602024542	-0.2274131860347987	-0.05451668336640785	1.563594618958449e-07	1.974447896944134e-07	-7.260015134735866e-07	1.31626688102295e-06	-3.813346463990452e-08	3.108095595401496e-07	-6.433956382670673e-07
1.54	-0.2087420150950326	0.01413712439051214	0.8639552375410431	0.7985078202664476	-0.2248625724390501	-0.1544430751256945	-0.2767343668701928	0.5814895288933042	0.5814895288931745	0.04834123032029389	0.1744839648699735	0.1557067599840965	0.03371564607634712	0.573846027149057	0.2600576517080317	0.3818769640788929	-2.031562625750434	0.01148282243425578	-0.309892434304337	0.7553931495517822	-1.774211994369929	-1.774211994369724	0.2950032101954414	0.0001804998551271502	-0.4017653275146935	-0.08746208838025912	-0.1133618312390983	-0.02786026731226021	0.005257207134022099	-0.2830885744687738	0.11776200795358	-0.01263425820225636	0.1491389383583979	-37.41352796664702	-3.080978515098395	-1.314786164933358	-4.712346917486117	-3.391451006680989	-642.0801109274031	58.61516709443286	0.07755298128188565	0.4420621939448021	-0.6550213000351257	-0.4691080232406856	0.004972445662945605	-0.4520655799153449	1.359079357283451	-0.4645831664181197	-0.4645831664181079	0.4064775418153223	-0.008483096410505835	-0.1773087425814496	-0.004851224478843555	1.65578940447514e-07	1.956922218485586e-07	-8.441544279726865e-07	1.307082754314057e-06	-2.429983552523485e-08	3.19388328721526e-07	-7.066954728643738e-07
